<?xml version="1.0" encoding="UTF-8" standalone="no"?>
<svg width="400px" height="400px" viewBox="0 0 400 400" version="1.1" xmlns="http://www.w3.org/2000/svg" xmlns:xlink="http://www.w3.org/1999/xlink" >
    <defs></defs>
    <g stroke="none" stroke-width="1" fill="none" fill-rule="evenodd" opacity="0.1">
        <g>
            <g transform="translate(22.000000, 17.000000)">
                <polygon stroke="#000000" stroke-width="2" transform="translate(262.500000, 11.500000) rotate(-42.000000) translate(-262.500000, -11.500000) " points="262.5 4 271 19 254 19 "></polygon>
                <polygon stroke="#000000" stroke-width="2" transform="translate(96.500000, 202.500000) rotate(-42.000000) translate(-96.500000, -202.500000) " points="96.5 197 103 208 90 208 "></polygon>
                <circle stroke="#000000" stroke-width="2" cx="353" cy="16" r="12"></circle>
                <rect stroke="#000000" stroke-width="2" x="306" y="104" width="18" height="18"></rect>
                <path d="M82.5,2.5 L98.5,10.5" stroke="#000000" stroke-width="2" stroke-linecap="square"></path>
                <path d="M26.5,188.5 L19.5,211.5" stroke="#000000" stroke-width="2" stroke-linecap="square"></path>
                <circle fill="#000000" cx="242" cy="83" r="3"></circle>
                <circle fill="#000000" cx="34" cy="41" r="3"></circle>
                <circle fill="#000000" cx="338" cy="191" r="3"></circle>
                <circle fill="#000000" cx="160" cy="267" r="3"></circle>
                <rect fill="#000000" x="185" y="141" width="5" height="5"></rect>
                <rect fill="#000000" x="251" y="309" width="5" height="5"></rect>
                <rect fill="#000000" x="81" y="345" width="5" height="5"></rect>
                <polygon stroke="#000000" stroke-width="2" points="95 109 108.314791 118.673762 103.228994 134.326238 86.7710065 134.326238 81.6852088 118.673762 "></polygon>
                <polygon stroke="#000000" stroke-width="2" transform="translate(163.000000, 49.000000) rotate(-270.000000) translate(-163.000000, -49.000000) " points="163 39 171.660254 44 171.660254 54 163 59 154.339746 54 154.339746 44 "></polygon>
                <path d="M224.183594,206.568359 C224.183594,206.568359 224.174805,186.939453 248.204102,182.530273" stroke="#000000" stroke-width="2"></path>
                <path d="M161.077148,365.632813 C161.077148,365.632813 176.951172,351.853516 195.178711,366.865234" stroke="#000000" stroke-width="2"></path>
                <path d="M7.11621094,339.5 L3.77929688,355.30957 L17.1328125,357.533203 L7.11621094,339.5 Z" stroke="#000000" stroke-width="2"></path>
                <path d="M0.922851562,102.628906 C0.922851562,102.628906 11.1083984,110.459961 4.87109375,121.338867" stroke="#000000" stroke-width="2"></path>
                <path d="M304.321777,263.426758 C304.321777,263.426758 296.787598,270.626953 290.050781,270.626953 C283.313965,270.626953 269.779785,268.435547 269.779785,251.936035 C269.779785,235.436523 283.820312,234.932129 284.699707,234.932129 C285.579102,234.932129 301.126465,235.319824 299.949707,249.095215 C299.354126,256.067214 294.765137,260.844385 287.050781,260.835938 C279.336426,260.827492 277.806152,255.006713 277.806152,251.036621 C277.806152,246.626347 281.460449,243.005697 285.579102,242.740235 C289.697754,242.474772 292.385139,244.549675 292.97168,247.640625 C294.395996,255.146484 283.507812,254.900879 285.579102,249.095215" stroke="#000000" stroke-width="2"></path>
                <path d="M353,336 L340,336 L340,350 L327,350 L327,361" stroke="#000000" stroke-width="2"></path>
                <path d="M59.2216797,266.384766 L64.6132812,269.897461 L60.5917969,275.216797 L66.53125,277.820312 L63.2519531,282.341797" stroke="#000000" stroke-width="2"></path>
            </g>
        </g>
    </g>
</svg>
