<?xml version="1.0" encoding="UTF-8" standalone="no"?>
<svg width="291px" height="266px" viewBox="0 0 291 266" version="1.1" xmlns="http://www.w3.org/2000/svg" xmlns:xlink="http://www.w3.org/1999/xlink">
    <defs></defs>
    <g stroke="none" stroke-width="1" fill="none" fill-rule="evenodd">
        <g transform="translate(-780.000000, -325.000000)" fill="#000000">
            <g transform="translate(780.000000, 325.000000)">
                <g>
                    <path d="M220.112054,0.662393162 L214.39631,0.662393162 L209.042321,25.6544872 L203.905387,0.662393162 L197.972589,0.662393162 L206.148274,34.2523504 L206.148274,51.6666667 L211.936369,51.6666667 L211.936369,33.8151709 L220.112054,0.662393162 Z"></path>
                    <path d="M141.019048,87.4358974 L148.254167,87.4358974 L148.254167,36.4316239 L142.755476,36.4316239 L142.755476,73.2275641 L134.362738,36.4316239 L126.404107,36.4316239 L126.404107,87.4358974 L131.902798,87.4358974 L131.902798,47.5068376 L141.019048,87.4358974 Z"></path>
                    <path d="M74.9074107,72.2264957 L69.1193155,72.2264957 L69.1193155,123.230769 L74.9074107,123.230769 L74.9074107,72.2264957 Z"></path>
                    <path d="M14.1084821,155 L14.1084821,109.387607 L21.7053571,109.387607 L21.7053571,103.995726 L0.723511905,103.995726 L0.723511905,109.387607 L8.3203869,109.387607 L8.3203869,155 L14.1084821,155 Z"></path>
                </g>
                <g transform="translate(73.000000, 111.000000)">
                    <path d="M202.228642,0.66038834 L202.228642,51.5102906 L208.055172,51.5102906 L208.055172,28.3372637 L217.523284,28.3372637 L217.523284,23.0343453 L208.055172,23.0343453 L208.055172,6.03594943 L217.887442,6.03594943 L217.887442,0.66038834 L202.228642,0.66038834 Z"></path>
                    <path d="M147.757427,84.5297076 L155.04059,84.5297076 L155.04059,33.6798054 L149.505386,33.6798054 L149.505386,70.3643777 L141.056918,33.6798054 L133.045439,33.6798054 L133.045439,84.5297076 L138.580642,84.5297076 L138.580642,44.7214984 L147.757427,84.5297076 Z"></path>
                    <path d="M84.4861661,113.824534 L84.4861661,80.9900261 C84.4861661,74.6701097 81.3544062,71.5464728 75.0180547,71.5464728 L72.8331059,71.5464728 C66.4967544,71.5464728 63.3649944,74.6701097 63.3649944,80.9900261 L63.3649944,113.824534 C63.3649944,120.144451 66.4967544,123.268088 72.8331059,123.268088 L75.0180547,123.268088 C81.3544062,123.268088 84.4861661,120.144451 84.4861661,113.824534 L84.4861661,113.824534 Z M78.659636,80.6994552 L78.659636,114.115105 C78.659636,116.730243 77.4214984,117.965169 74.7995598,117.965169 L73.0516008,117.965169 C70.4296622,117.965169 69.1915246,116.730243 69.1915246,114.115105 L69.1915246,80.6994552 C69.1915246,78.0843174 70.4296622,76.8493912 73.0516008,76.8493912 L74.7995598,76.8493912 C77.4214984,76.8493912 78.659636,78.0843174 78.659636,80.6994552 L78.659636,80.6994552 Z"></path>
                    <path d="M15.6002488,134.989981 L15.6002488,145.813746 C15.6002488,148.428883 14.3621111,149.66381 11.7401726,149.66381 L10.1378768,149.66381 C7.51593824,149.66381 6.27780059,148.428883 6.27780059,145.813746 L6.27780059,112.398096 C6.27780059,109.782958 7.51593824,108.548032 10.1378768,108.548032 L11.5945093,108.548032 C14.2164479,108.548032 15.4545855,109.782958 15.4545855,112.398096 L15.4545855,121.696363 L21.1354524,121.696363 L21.1354524,112.543381 C21.1354524,106.296107 18.0765241,103.245113 11.8130042,103.245113 L9.91938191,103.245113 C3.58303041,103.245113 0.45127047,106.36875 0.45127047,112.688666 L0.45127047,145.523175 C0.45127047,151.843091 3.58303041,154.966728 9.91938191,154.966728 L11.8130042,154.966728 C18.1493557,154.966728 21.2811156,151.843091 21.2811156,145.523175 L21.2811156,134.989981 L15.6002488,134.989981 Z"></path>
                </g>
                <path d="M20.2719402,217.226955 L288.218531,46.4246266 L291,44.6515815 L287.509529,39 L284.72806,40.7730452 L16.7814691,211.575373 L14,213.348419 L17.4904711,219 L20.2719402,217.226955 L20.2719402,217.226955 Z"></path>
            </g>
        </g>
    </g>
</svg>